<svg enable-background="new 0 0 240 28" height="28" viewBox="0 0 240 28" width="240" xmlns="http://www.w3.org/2000/svg"><path d="m38.43 1.9-10.43 5v-2.21l9.57-4.59z"/><path d="m22 7.56v2.21l-1.5.72v-2.21z"/><path d="m18.5 19c0 .553-.447 1-1 1h-14c-.553 0-1-.447-1-1v-10c0-.553.447-1 1-1h14c.553 0 1 .447 1 1z" fill="#fff"/><path d="m17.5 21h-14c-1.103 0-2-.897-2-2v-10c0-1.103.897-2 2-2h14c1.103 0 2 .897 2 2v10c0 1.103-.897 2-2 2zm-14-12v10h14.002l-.002-10z"/><path d="m18.5 9.5v2.5l-8 6-8-6v-2.5l8 6z"/><path d="m1.501 18.5c-.305 0-.604-.138-.801-.4-.332-.441-.242-1.068.2-1.399l22-16.5c.441-.333 1.067-.242 1.399.2s.242 1.069-.2 1.4l-22 16.5c-.179.134-.389.199-.598.199z" fill="#fff"/><path d="m1.001 20c-.305 0-.604-.138-.801-.4-.332-.441-.242-1.068.2-1.399l24-18 1.2 1.599-24 18c-.18.135-.39.2-.599.2z"/><path d="m34 28v-9.5s6-2.531 6-4.5c0-2.875 0-14 0-14h-4v11s-2 3-4 3c0 0 1 0-1 0s-4-2-4-3 0-11 0-11h-2-2v14s6 4.5 6 4.5v9.5z"/><path d="m19.5 7h1v5h-1z" fill="#fff"/><path d="m67.354 8.357v3.164c-.926-.539-1.857-.943-2.795-1.213s-1.893-.404-2.865-.404c-1.465 0-2.558.237-3.278.712s-1.081 1.198-1.081 2.171c0 .879.27 1.535.809 1.969s1.881.856 4.025 1.266l1.301.246c1.605.305 2.821.914 3.647 1.828s1.239 2.104 1.239 3.568c0 1.945-.691 3.466-2.074 4.562s-3.305 1.644-5.766 1.644c-.973 0-1.992-.103-3.059-.308s-2.221-.513-3.463-.923v-3.34c1.207.621 2.361 1.087 3.463 1.397s2.145.466 3.129.466c1.43 0 2.537-.29 3.322-.87s1.178-1.392 1.178-2.435c0-1.5-1.436-2.537-4.307-3.111l-.141-.035-1.213-.246c-1.863-.363-3.223-.976-4.078-1.837s-1.283-2.037-1.283-3.525c0-1.887.639-3.343 1.916-4.368s3.1-1.538 5.467-1.538c1.055 0 2.068.097 3.041.29s1.928.483 2.866.87z"/><path d="m89.494 26.357c-.867.504-1.761.882-2.681 1.134s-1.86.378-2.821.378c-3.047 0-5.429-.914-7.146-2.742s-2.575-4.359-2.575-7.594.858-5.766 2.575-7.594 4.099-2.742 7.146-2.742c.949 0 1.875.123 2.777.369s1.811.627 2.725 1.143v3.393c-.855-.762-1.714-1.312-2.575-1.652s-1.837-.51-2.927-.51c-2.027 0-3.586.656-4.676 1.969s-1.635 3.188-1.635 5.625c0 2.426.548 4.298 1.644 5.616s2.651 1.978 4.667 1.978c1.125 0 2.133-.173 3.023-.519s1.717-.882 2.479-1.608z"/><path d="m109.912 15.16v12.199h-3.252v-12.199c0-1.77-.311-3.071-.932-3.903s-1.594-1.248-2.918-1.248c-1.512 0-2.675.536-3.489 1.608s-1.222 2.61-1.222 4.615v11.127h-3.234v-27.352h3.235v10.617c.574-1.125 1.354-1.978 2.338-2.558s2.15-.87 3.498-.87c2.004 0 3.501.659 4.491 1.978s1.485 3.314 1.485 5.986z"/><path d="m121.824 20.223c0 1.453.267 2.549.8 3.287s1.321 1.107 2.364 1.107h3.779v2.742h-4.096c-1.934 0-3.431-.621-4.491-1.863s-1.591-3-1.591-5.273v-17.878h-5.186v-2.531h8.42v20.409z"/><path d="m151.452 16.707v1.582h-14.01v.105c0 2.145.56 3.803 1.679 4.975s2.698 1.758 4.737 1.758c1.031 0 2.109-.164 3.234-.492s2.326-.826 3.604-1.494v3.217c-1.23.504-2.417.882-3.56 1.134s-2.247.378-3.313.378c-3.059 0-5.449-.917-7.172-2.751s-2.584-4.362-2.584-7.585c0-3.141.844-5.649 2.531-7.524s3.938-2.812 6.75-2.812c2.508 0 4.485.85 5.933 2.549s2.171 4.018 2.171 6.96zm-3.234-.949c-.047-1.899-.495-3.343-1.345-4.333s-2.071-1.485-3.665-1.485c-1.559 0-2.842.516-3.85 1.547s-1.605 2.461-1.793 4.29z"/><path d="m156.646 19.906v-12.2h3.234v12.2c0 1.77.313 3.07.94 3.902s1.597 1.248 2.909 1.248c1.523 0 2.689-.536 3.498-1.608s1.213-2.61 1.213-4.614v-11.127h3.252v19.653h-3.252v-2.953c-.574 1.137-1.356 1.998-2.347 2.584s-2.147.879-3.472.879c-2.016 0-3.516-.659-4.5-1.978s-1.475-3.314-1.475-5.986z"/><path d="m189.615 10.185v-10.178h3.234v27.352h-3.234v-2.479c-.539.973-1.257 1.714-2.153 2.224s-1.931.765-3.103.765c-2.379 0-4.251-.923-5.616-2.769s-2.048-4.392-2.048-7.638c0-3.2.686-5.71 2.057-7.533s3.24-2.733 5.607-2.733c1.184 0 2.227.255 3.129.765s1.612 1.251 2.127 2.224zm-9.51 7.348c0 2.508.398 4.4 1.195 5.678s1.975 1.916 3.533 1.916 2.745-.645 3.56-1.934 1.222-3.176 1.222-5.66c0-2.496-.407-4.386-1.222-5.669s-2.001-1.925-3.56-1.925-2.736.639-3.533 1.916-1.195 3.17-1.195 5.678z"/><path d="m215.394 16.707v1.582h-14.01v.105c0 2.145.56 3.803 1.679 4.975s2.698 1.758 4.737 1.758c1.031 0 2.109-.164 3.234-.492s2.326-.826 3.604-1.494v3.217c-1.23.504-2.417.882-3.56 1.134s-2.247.378-3.313.378c-3.059 0-5.449-.917-7.172-2.751s-2.584-4.362-2.584-7.585c0-3.141.844-5.649 2.531-7.524s3.938-2.812 6.75-2.812c2.508 0 4.485.85 5.933 2.549s2.171 4.018 2.171 6.96zm-3.235-.949c-.047-1.899-.495-3.343-1.345-4.333s-2.071-1.485-3.665-1.485c-1.559 0-2.842.516-3.85 1.547s-1.605 2.461-1.793 4.29z"/><path d="m237.463 11.732c-.691-.539-1.395-.932-2.109-1.178s-1.5-.369-2.355-.369c-2.016 0-3.557.633-4.623 1.898s-1.6 3.094-1.6 5.485v9.791h-3.252v-19.688h3.252v3.85c.539-1.395 1.368-2.464 2.487-3.208s2.446-1.116 3.981-1.116c.797 0 1.541.1 2.232.299s1.354.51 1.986.932v3.304z"/></svg>