<svg enable-background="new 0 0 400 280" height="280" viewBox="0 0 400 280" width="400" xmlns="http://www.w3.org/2000/svg"><path d="m384.295 19.001-104.296 50v-22.099l95.702-45.898z" fill="#020202"/><path d="m220 75.603v22.099l-15 7.202v-22.104z" fill="#020202"/><path d="m185 190.001c0 5.527-4.473 10-10 10h-139.999c-5.527 0-10-4.473-10-10v-99.999c0-5.527 4.473-10 10-10h139.999c5.527 0 10 4.473 10 10z" fill="#fff"/><path d="m175 210.001h-139.999c-11.025 0-20-8.975-20-20v-99.999c0-11.03 8.975-20 20-20h139.999c11.025 0 20 8.97 20 20v99.999c0 11.025-8.975 20-20 20zm-139.999-119.999v99.999h140.019l-.02-99.999z"/><path d="m185 95.002v24.999l-79.999 60-79.999-60v-24.999l79.999 59.999z"/><path d="m15.012 185.001c-3.047 0-6.045-1.377-8.008-4.004-3.32-4.414-2.422-10.684 2.002-13.994l219.998-164.998c4.414-3.325 10.674-2.422 13.994 1.997s2.422 10.688-2.002 13.998l-219.998 164.999c-1.797 1.348-3.896 2.002-5.986 2.002z" fill="#fff"/><path d="m10.012 200.001c-3.047 0-6.045-1.377-8.008-4.004-3.32-4.414-2.422-10.684 2.002-13.994l239.998-179.998 11.992 15.995-239.998 179.999c-1.797 1.348-3.896 2.002-5.986 2.002z" fill="#020202"/><path d="m339.998 280v-94.999s60-25.312 60-45c0-28.75 0-139.999 0-139.999h-40v109.999c0 10-20 30-39.999 30 0 0 10 0-10 0s-40-20-40-30 0-109.999 0-109.999h-19.999-20v139.999c0 20 59.999 45 59.999 45v94.999z"/><path d="m195 70.002h10v50h-10z" fill="#fff"/></svg>